<?xml version="1.0" encoding="UTF-8"?>
<svg xmlns="http://www.w3.org/2000/svg" xmlns:xlink="http://www.w3.org/1999/xlink" width="16px" height="16px" viewBox="0 0 16 16" version="1.1">
<g id="surface1">
<path style=" stroke:none;fill-rule:nonzero;fill:rgb(0%,0%,0%);fill-opacity:1;" d="M 15.578125 10.585938 L 14.183594 10.585938 C 13.949219 10.585938 13.761719 10.773438 13.761719 11.003906 L 13.761719 14.339844 C 13.761719 14.570312 13.949219 14.761719 14.183594 14.761719 L 15.578125 14.761719 C 15.8125 14.761719 16 14.570312 16 14.339844 L 16 11.003906 C 16 10.773438 15.8125 10.585938 15.578125 10.585938 Z M 15.578125 10.585938 "/>
<path style=" stroke:none;fill-rule:nonzero;fill:rgb(0%,0%,0%);fill-opacity:1;" d="M 12.140625 8.984375 L 10.742188 8.984375 C 10.507812 8.984375 10.320312 9.171875 10.320312 9.40625 L 10.320312 14.339844 C 10.320312 14.570312 10.507812 14.761719 10.742188 14.761719 L 12.140625 14.761719 C 12.371094 14.761719 12.558594 14.570312 12.558594 14.339844 L 12.558594 9.40625 C 12.558594 9.171875 12.371094 8.984375 12.140625 8.984375 Z M 12.140625 8.984375 "/>
<path style=" stroke:none;fill-rule:nonzero;fill:rgb(0%,0%,0%);fill-opacity:1;" d="M 5.257812 10.585938 L 3.859375 10.585938 C 3.628906 10.585938 3.441406 10.773438 3.441406 11.003906 L 3.441406 14.339844 C 3.441406 14.570312 3.628906 14.761719 3.859375 14.761719 L 5.257812 14.761719 C 5.492188 14.761719 5.679688 14.570312 5.679688 14.339844 L 5.679688 11.003906 C 5.679688 10.773438 5.492188 10.585938 5.257812 10.585938 Z M 5.257812 10.585938 "/>
<path style=" stroke:none;fill-rule:nonzero;fill:rgb(0%,0%,0%);fill-opacity:1;" d="M 1.816406 8.984375 L 0.421875 8.984375 C 0.1875 8.984375 0 9.171875 0 9.40625 L 0 14.339844 C 0 14.570312 0.1875 14.761719 0.421875 14.761719 L 1.816406 14.761719 C 2.050781 14.761719 2.238281 14.570312 2.238281 14.339844 L 2.238281 9.40625 C 2.238281 9.171875 2.050781 8.984375 1.816406 8.984375 Z M 1.816406 8.984375 "/>
<path style=" stroke:none;fill-rule:nonzero;fill:rgb(0%,0%,0%);fill-opacity:1;" d="M 8.699219 6.855469 L 7.300781 6.855469 C 7.070312 6.855469 6.878906 7.042969 6.878906 7.277344 L 6.878906 14.339844 C 6.878906 14.570312 7.070312 14.761719 7.300781 14.761719 L 8.699219 14.761719 C 8.929688 14.761719 9.121094 14.570312 9.121094 14.339844 L 9.121094 7.277344 C 9.121094 7.042969 8.929688 6.855469 8.699219 6.855469 Z M 8.699219 6.855469 "/>
<path style=" stroke:none;fill-rule:nonzero;fill:rgb(0%,0%,0%);fill-opacity:1;" d="M 15.203125 8.511719 C 15.488281 8.511719 15.726562 8.28125 15.726562 7.992188 L 15.726562 6.304688 C 15.726562 6.015625 15.492188 5.78125 15.203125 5.78125 C 14.914062 5.78125 14.683594 6.015625 14.683594 6.304688 L 14.683594 6.726562 L 9.378906 1.394531 C 9.269531 1.285156 9.117188 1.226562 8.960938 1.242188 C 8.808594 1.253906 8.667969 1.339844 8.578125 1.464844 L 4.585938 7.28125 L 1.078125 5.046875 C 0.832031 4.890625 0.511719 4.960938 0.355469 5.203125 C 0.203125 5.449219 0.273438 5.769531 0.515625 5.925781 L 4.449219 8.429688 C 4.535156 8.488281 4.632812 8.511719 4.730469 8.511719 C 4.894531 8.511719 5.058594 8.433594 5.160156 8.285156 L 9.082031 2.578125 L 13.949219 7.46875 L 13.515625 7.46875 C 13.226562 7.46875 12.996094 7.703125 12.996094 7.992188 C 12.996094 8.28125 13.226562 8.511719 13.515625 8.511719 C 13.75 8.511719 14.964844 8.511719 15.203125 8.511719 Z M 15.203125 8.511719 "/>
</g>
</svg>
