<svg id="Layer_1" data-name="Layer 1" xmlns="http://www.w3.org/2000/svg" viewBox="0 0 12.74 97.14"><defs><style>.cls-1{fill:#fff;}.cls-1,.cls-3{stroke:#1d1d1b;stroke-miterlimit:10;}.cls-2{fill:#1d1d1b;}.cls-3{fill:none;}</style></defs><rect class="cls-1" x="20.62" y="61.38" width="61.78" height="11.56" transform="translate(73.65 14.39) rotate(90.15)"/><line class="cls-1" x1="12.09" y1="87.17" x2="0.53" y2="87.14"/><path class="cls-2" d="M53.64,28.25a9.48,9.48,0,0,1-3.55-9c.36-2,1.41-3.85,1.74-5.88a12.63,12.63,0,0,0-.37-5.7,20.26,20.26,0,0,0-3.38-5.94l-.69.69a25.25,25.25,0,0,1,4.32,4.2,12.87,12.87,0,0,1,3,5.21c.43,2.19-.51,4.39-1.41,6.33a18.32,18.32,0,0,0-1.95,5.59A6.15,6.15,0,0,0,53,28.88c.47.44,1.17-.27.71-.71a5.38,5.38,0,0,1-1.27-5c.4-2.12,1.53-4,2.36-6a9.67,9.67,0,0,0,.84-5.91,14.09,14.09,0,0,0-2.91-5.11A26.86,26.86,0,0,0,47.9,1.5c-.4-.3-1,.3-.69.69a20,20,0,0,1,3.22,5.49,11.67,11.67,0,0,1,.27,6.23c-.47,2-1.47,3.76-1.69,5.79a10.28,10.28,0,0,0,.72,5,10.38,10.38,0,0,0,3.4,4.45c.52.39,1-.48.51-.86Z" transform="translate(-45.15 -1.42)"/><rect class="cls-3" x="49.46" y="26.68" width="4.3" height="11.56" transform="matrix(0, -1, 1, 0, -26.15, 82.56)"/></svg>